<?xml version="1.0"?>
<svg width="51" height="200.787" xmlns="http://www.w3.org/2000/svg" xmlns:svg="http://www.w3.org/2000/svg" clip-rule="evenodd">
 <defs>
  <style type="text/css">
   <![CDATA[
    .fil0 {fill:black;fill-rule:nonzero}
   ]]>
  </style>
 </defs>
 <g class="layer">
  <title>Layer 1</title>
  <g id="Layer_x0020_1">
   <metadata id="CorelCorpID_0Corel-Layer"/>
   <path class="fil0" d="m51.2008,93.8181l0,13.5428c-4.52776,0.10842 -8.23831,3.07016 -11.1015,5.88319c-2.83713,2.78492 -6.24059,6.56173 -7.20638,11.3043c-0.93366,4.77874 -0.94768,12.9789 -0.9778,24.6045c-0.06224,11.6617 0.25905,19.2917 -0.04413,23.0042c-0.53811,5.91921 -2.00791,10.1237 -3.45559,13.6535c-1.44768,3.52984 -2.72866,6.34488 -4.84295,8.44913c-2.14039,2.14039 -4.35504,3.24669 -7.64394,4.35102c-2.23276,0.78307 -5.88709,1.67661 -10.9509,1.67661l-4.95343,0l0,-7.4043l3.24677,0c6.12602,0 11.6699,-1.81717 16.1918,-6.41736c4.5219,-4.60019 4.98772,-14.4913 4.98772,-23.6191c0,-17.3982 -0.72894,-28.4556 -0.18481,-33.1239c0.93567,-7.7022 0.80099,-10.45068 4.64012,-14.5467c3.83913,-4.09602 12.35087,-12.19815 17.5392,-14.8004c-6.78862,-3.81496 -14.0553,-9.87882 -16.8322,-16.1916c-2.77689,-6.31276 -4.16232,-17.3298 -4.16232,-30.9131c0,-13.5833 -0.49598,-19.68719 -0.92165,-24.3555c-0.42567,-4.66831 -2.57016,-13.91303 -6.49972,-16.77031c-3.92956,-2.85728 -8.17626,-4.24677 -13.7581,-4.24677c-1.24892,0 -2.99785,0 -4.24677,0l0,-7.8983l4.95343,0c5.7626,0 9.95504,0.53409 12.5512,1.67457c3.7728,1.53402 6.87697,4.09807 9.35067,7.7022c2.4737,3.63827 4.1061,8.19815 4.82894,13.6937c0.72484,5.52366 1.14449,14.5491 1.20673,27.0601c0.03012,12.5532 0.54413,21.1831 1.4778,25.9618c0.96579,4.77874 2.86925,8.55756 5.70638,11.3405c2.86323,2.7789 6.57378,6.24063 11.1015,6.3852l-0.00007,0.00002z" fill="black" id="svg_1"/>
  </g>
 </g>
</svg>