<?xml version="1.0"?>
<svg width="51" height="200.787" xmlns="http://www.w3.org/2000/svg" xmlns:svg="http://www.w3.org/2000/svg" clip-rule="evenodd">
 <defs>
  <style type="text/css">
   <![CDATA[
    .fil0 {fill:black;fill-rule:nonzero}
   ]]>
  </style>
 </defs>
 <g class="layer">
  <title>Layer 1</title>
  <g id="Layer_x0020_1">
   <metadata id="CorelCorpID_0Corel-Layer"/>
   <path class="fil0" d="m51.2008,93.6931l0.125,12.9178c-4.52776,0.10842 -8.36331,3.82016 -11.2265,6.63319c-2.83713,2.78492 -4.74059,6.56173 -5.70638,11.3043c-0.93366,4.77874 -1.44768,12.9789 -1.4778,24.6045c-0.06224,11.6617 -0.24095,19.2917 -0.54413,23.0042c-0.53811,5.91921 -1.50791,10.6237 -2.95559,14.1535c-1.44768,3.52984 -3.22866,6.34488 -5.34295,8.44913c-2.14039,2.14039 -4.85504,3.74669 -8.14394,4.85102c-2.23276,0.78307 -5.88709,1.17661 -10.9509,1.17661l-4.95343,0l-0.125,-2.4043l2.99677,-0.25c6.12602,0 6.94999,0.31587 14.0668,-2.04236c7.11681,-2.35823 12.48772,-12.8663 12.48772,-33.3691c0,-20.5028 0.14606,-27.3306 0.69019,-31.9989c0.93567,-7.7022 2.95811,-12.1565 5.76512,-16.7967c2.83913,-4.59602 12.95282,-6.86044 13.0392,-13.9254c0.08638,-7.06496 -8.5553,-6.75382 -13.4572,-12.5666c-4.9019,-5.81278 -5.66232,-20.1884 -5.66232,-35.1631c0,-13.5833 -0.12098,-9.68719 -0.67165,-24.3555c-0.55067,-14.66831 -6.19516,-20.91303 -11.24972,-23.27031c-5.05456,-2.35728 -9.17626,-2.12177 -14.7581,-2.12177l-3.12177,0l0,-2.5233l4.95343,0c5.7626,0 9.95504,0.53409 12.5512,1.67457c3.7728,1.53402 6.87697,4.09807 9.35067,7.7022c2.4737,3.63827 4.1061,8.19815 4.82894,13.6937c0.72484,5.52366 1.14449,14.5491 1.20673,27.0601c0.03012,12.5532 0.54413,21.1831 1.4778,25.9618c0.96579,4.77874 2.86925,8.55756 5.70638,11.3405c2.86323,2.7789 5.94878,5.61563 10.4765,5.7602l0.62493,0.50002z" fill="black" id="svg_1"/>
  </g>
 </g>
</svg>