<?xml version="1.0"?>
<svg width="20" height="200" xmlns="http://www.w3.org/2000/svg" xmlns:svg="http://www.w3.org/2000/svg" clip-rule="evenodd">
 <defs>
  <style type="text/css">
   <![CDATA[
    .fil0 {fill:black;fill-rule:nonzero}
   ]]>
  </style>
 </defs>
 <g class="layer">
  <title>Layer 1</title>
  <g id="Layer_x0020_1">
   <metadata id="CorelCorpID_0Corel-Layer"/>
   <path class="fil0" d="m20.036258,100.605085l-1.796263,0.918174c-1.669282,0.107921 -2.815268,7.596641 -3.519939,11.200416c-0.704671,3.603774 -1.747748,6.531575 -2.103813,11.252351c-0.344219,4.756779 -0.533727,12.919255 -0.544831,24.491429c-0.022947,11.608109 -0.088833,19.203045 -0.200609,22.898484c-0.198388,5.892008 -0.555932,10.574879 -1.089659,14.088457c-0.533727,3.513619 -1.190334,6.315722 -1.969825,8.410302c-0.789114,2.130554 -1.789943,3.729472 -3.002487,4.828727c-0.823168,0.779472 -2.170437,1.171203 -4.03735,1.171203l-1.826217,0l0.069255,-1.239848l0.989501,-0.106255c2.258526,0 3.369687,-0.058859 5.532133,-2.982952c2.162446,-2.924094 4.257919,-13.153194 4.257919,-33.561773c0,-20.408579 0.05385,-27.205002 0.254458,-31.851848c0.34496,-7.666805 1.26605,-12.100635 2.300932,-16.719511c1.046722,-4.574899 2.147463,-6.594977 2.179308,-13.62747c0.031847,-7.032493 -0.613927,-5.578996 -1.982493,-11.479873c-1.368566,-5.900877 -2.613954,-21.358536 -2.613954,-36.26442c0,-13.520877 -0.044602,-9.642672 -0.247622,-24.243574c-0.20302,-14.600901 -2.053335,-21.393624 -3.916837,-23.740072c-1.863503,-2.346447 -3.26774,-2.715977 -5.325639,-2.715977l-1.496946,-0.115341l0,-1.215704l1.826218,0c2.124539,0 3.670198,0.531636 4.627343,1.666874c1.390947,1.526971 2.535384,4.079238 3.447381,7.666805c0.911997,3.62155 1.513826,8.160475 1.780321,13.63077c0.267233,5.498276 0.421949,14.48224 0.444894,26.935745c0.011106,12.495512 0.200609,21.085753 0.544832,25.842492c0.356065,4.756779 0.872743,7.948204 1.928352,11.518006c1.055608,3.5698 2.012817,11.899084 3.682085,12.04299l1.809552,1.301393z" fill="black" id="svg_1"/>
  </g>
 </g>
</svg>